<svg width="204" height="31" viewBox="0 0 204 31" fill="none" xmlns="http://www.w3.org/2000/svg">
<path d="M14.4895 10.5949C14.4895 14.5995 7.24474 26.6498 7.24474 26.6498C7.24474 26.6498 0 14.5995 0 10.5949C0 6.59027 3.24011 3.35016 7.24474 3.35016C11.2494 3.35016 14.4895 6.59027 14.4895 10.5949Z" fill="#813758"/>
<path d="M11.5948 11.632C12.1631 9.22516 10.6727 6.81325 8.26582 6.24491C5.85893 5.67657 3.44703 7.167 2.87869 9.57389C2.31034 11.9808 3.80078 14.3927 6.20767 14.961C8.61455 15.5294 11.0265 14.0389 11.5948 11.632Z" fill="#FAD5B4"/>
<path d="M22.148 24V23.7491L22.6499 23.5734C22.9845 23.473 23.2019 23.3225 23.3023 23.1217C23.4194 22.921 23.478 22.6533 23.478 22.3187V9.16967C23.478 8.83509 23.4194 8.56742 23.3023 8.36667C23.1852 8.16592 22.9594 8.007 22.6248 7.8899L22.148 7.68915V7.43821H28.2458C30.7384 7.43821 32.5368 7.89826 33.6409 8.81836C34.7617 9.72173 35.3222 10.9179 35.3222 12.4067C35.3222 13.3603 35.088 14.2386 34.6195 15.0416C34.1679 15.8278 33.415 16.4552 32.3611 16.9236C31.3072 17.392 29.8852 17.6262 28.0952 17.6262H27.242V22.2434C27.242 22.8959 27.5682 23.3225 28.2207 23.5232L28.9735 23.7491V24H22.148ZM27.242 17.1243H28.1956C29.0153 17.1243 29.6845 16.9905 30.2031 16.7228C30.7217 16.4552 31.1064 15.9868 31.3574 15.3176C31.6083 14.6484 31.7338 13.72 31.7338 12.5322C31.7338 11.3277 31.5916 10.3909 31.3072 9.72173C31.0395 9.05257 30.638 8.59252 30.1027 8.34158C29.5674 8.07391 28.8982 7.94008 28.0952 7.94008H27.242V17.1243ZM36.1885 24V23.7491L36.5649 23.6487C36.8995 23.5483 37.1253 23.3978 37.2424 23.197C37.3762 22.9963 37.4432 22.737 37.4432 22.4191V14.5648C37.4432 14.1968 37.3762 13.9291 37.2424 13.7618C37.1253 13.5778 36.8995 13.4523 36.5649 13.3854L36.1885 13.285V13.0341L40.5046 11.5787L40.7555 11.8296L40.9814 13.9876V14.1884C41.2156 13.72 41.5167 13.2934 41.8847 12.9086C42.2695 12.5071 42.6877 12.1809 43.1394 11.93C43.6078 11.679 44.0679 11.5536 44.5196 11.5536C45.1553 11.5536 45.6404 11.7292 45.975 12.0805C46.3096 12.4318 46.4769 12.8752 46.4769 13.4105C46.4769 13.9793 46.3096 14.4226 45.975 14.7405C45.6571 15.0416 45.2724 15.1921 44.8207 15.1921C44.1181 15.1921 43.4991 14.8408 42.9638 14.1382L42.9136 14.088C42.7463 13.8538 42.5539 13.7283 42.3364 13.7116C42.1189 13.6782 41.9182 13.7785 41.7342 14.0127C41.5669 14.1633 41.4247 14.3473 41.3076 14.5648C41.2072 14.7655 41.1068 14.9998 41.0065 15.2674V22.2685C41.0065 22.9377 41.2992 23.3559 41.8847 23.5232L42.6877 23.7491V24H36.1885ZM53.1714 11.5536C54.2588 11.5536 55.1872 11.7794 55.9568 12.2311C56.7263 12.666 57.3118 13.2683 57.7133 14.0378C58.1315 14.7906 58.3407 15.6522 58.3407 16.6225C58.3407 16.8065 58.3323 16.9989 58.3156 17.1996C58.2988 17.3836 58.2654 17.5509 58.2152 17.7015H50.7373C50.754 19.5082 51.0719 20.8131 51.6908 21.6161C52.3265 22.4024 53.2634 22.7955 54.5013 22.7955C55.3378 22.7955 56.0153 22.6617 56.5339 22.394C57.0525 22.1263 57.5377 21.7332 57.9893 21.2146L58.2403 21.4405C57.7217 22.3606 57.0274 23.0799 56.1575 23.5985C55.3043 24.1171 54.2755 24.3764 53.071 24.3764C51.8832 24.3764 50.8293 24.1255 49.9092 23.6236C48.9891 23.105 48.2697 22.3689 47.7511 21.4154C47.2325 20.4618 46.9732 19.3242 46.9732 18.0026C46.9732 16.6308 47.2744 15.4682 47.8766 14.5146C48.4789 13.5443 49.2484 12.8082 50.1852 12.3064C51.1388 11.8045 52.1342 11.5536 53.1714 11.5536ZM53.0961 12.0554C52.6109 12.0554 52.1927 12.206 51.8414 12.5071C51.5068 12.7915 51.2392 13.3101 51.0384 14.0629C50.8544 14.799 50.754 15.8446 50.7373 17.1996H55.0283C55.1956 15.3762 55.1287 14.0629 54.8275 13.2599C54.5264 12.4569 53.9493 12.0554 53.0961 12.0554ZM63.9324 24.3764C63.1127 24.3764 62.3766 24.276 61.7242 24.0753C61.0717 23.8913 60.4695 23.6571 59.9174 23.3727L59.9425 20.3865H60.1935L61.0466 21.8921C61.4147 22.5613 61.8162 23.0632 62.2511 23.3978C62.7028 23.7156 63.2716 23.8745 63.9575 23.8745C64.7605 23.8745 65.4046 23.6989 65.8897 23.3476C66.3916 22.9795 66.6425 22.4944 66.6425 21.8921C66.6425 21.3401 66.4669 20.8884 66.1156 20.5371C65.7642 20.1858 65.1118 19.8679 64.1583 19.5835L63.1043 19.2573C62.0838 18.9562 61.2809 18.4878 60.6953 17.8521C60.1098 17.2164 59.8171 16.4385 59.8171 15.5184C59.8171 14.4142 60.252 13.4774 61.1219 12.7079C61.9918 11.9383 63.2382 11.5536 64.8609 11.5536C65.5133 11.5536 66.1239 11.6288 66.6927 11.7794C67.2782 11.9132 67.8387 12.1224 68.374 12.4067L68.2234 15.1169H67.9725L67.0942 13.5611C66.7764 13.009 66.4585 12.6242 66.1407 12.4067C65.8395 12.1725 65.3795 12.0554 64.7605 12.0554C64.1917 12.0554 63.6564 12.2144 63.1545 12.5322C62.6526 12.8501 62.4017 13.3018 62.4017 13.8873C62.4017 14.4561 62.6108 14.9077 63.029 15.2423C63.464 15.5769 64.0997 15.8864 64.9362 16.1708L66.0654 16.497C67.2699 16.865 68.1314 17.3753 68.65 18.0277C69.1686 18.6634 69.4279 19.433 69.4279 20.3363C69.4279 21.5576 68.9428 22.5362 67.9725 23.2723C67.0189 24.0084 65.6722 24.3764 63.9324 24.3764ZM75.2885 24.3764C74.2178 24.3764 73.3813 24.1087 72.7791 23.5734C72.1936 23.0381 71.9008 22.1849 71.9008 21.0139V12.4318H70.1694V12.1809L70.7716 12.0805C71.2902 11.9634 71.7335 11.7961 72.1016 11.5787C72.4863 11.3612 72.8627 11.0684 73.2308 10.7004L75.2885 8.41686H75.5394L75.4641 11.93H78.2746V12.4318H75.439V21.4655C75.439 22.0511 75.5645 22.4944 75.8154 22.7955C76.0831 23.0966 76.4177 23.2472 76.8192 23.2472C77.1705 23.2472 77.48 23.1635 77.7476 22.9963C78.0153 22.8122 78.283 22.5697 78.5506 22.2685L78.8016 22.5195C78.467 23.0883 78.0069 23.54 77.4214 23.8745C76.8359 24.2091 76.1249 24.3764 75.2885 24.3764ZM85.8629 24.3764C84.5915 24.3764 83.4873 24.1171 82.5505 23.5985C81.6137 23.0632 80.886 22.3104 80.3674 21.3401C79.8655 20.3698 79.6146 19.2322 79.6146 17.9273C79.6146 16.6225 79.8822 15.4933 80.4175 14.5397C80.9696 13.5861 81.7141 12.8501 82.6509 12.3315C83.6044 11.8129 84.6751 11.5536 85.8629 11.5536C87.0506 11.5536 88.1129 11.8129 89.0498 12.3315C89.9866 12.8333 90.7227 13.5611 91.258 14.5146C91.8101 15.4682 92.0861 16.6057 92.0861 17.9273C92.0861 19.2489 91.8268 20.3949 91.3082 21.3652C90.8063 22.3187 90.087 23.0632 89.1501 23.5985C88.23 24.1171 87.1343 24.3764 85.8629 24.3764ZM85.8629 23.8745C86.4484 23.8745 86.9168 23.7072 87.2681 23.3727C87.6194 23.0381 87.8704 22.4442 88.0209 21.591C88.1882 20.7378 88.2719 19.5333 88.2719 17.9775C88.2719 16.405 88.1882 15.1921 88.0209 14.339C87.8704 13.4858 87.6194 12.8919 87.2681 12.5573C86.9168 12.2227 86.4484 12.0554 85.8629 12.0554C85.2773 12.0554 84.8006 12.2227 84.4325 12.5573C84.0812 12.8919 83.8219 13.4858 83.6546 14.339C83.5041 15.1921 83.4288 16.405 83.4288 17.9775C83.4288 19.5333 83.5041 20.7378 83.6546 21.591C83.8219 22.4442 84.0812 23.0381 84.4325 23.3727C84.8006 23.7072 85.2773 23.8745 85.8629 23.8745ZM98.7032 24V23.7491L99.205 23.5734C99.5396 23.473 99.7571 23.3225 99.8575 23.1217C99.9746 22.921 100.033 22.6533 100.033 22.3187V9.16967C100.033 8.83509 99.9746 8.56742 99.8575 8.36667C99.7404 8.16592 99.5145 8.007 99.1799 7.8899L98.7032 7.68915V7.43821H104.801C107.294 7.43821 109.092 7.89826 110.196 8.81836C111.317 9.72173 111.877 10.9179 111.877 12.4067C111.877 13.3603 111.643 14.2386 111.175 15.0416C110.723 15.8278 109.97 16.4552 108.916 16.9236C107.862 17.392 106.44 17.6262 104.65 17.6262H103.797V22.2434C103.797 22.8959 104.123 23.3225 104.776 23.5232L105.529 23.7491V24H98.7032ZM103.797 17.1243H104.751C105.57 17.1243 106.24 16.9905 106.758 16.7228C107.277 16.4552 107.662 15.9868 107.913 15.3176C108.163 14.6484 108.289 13.72 108.289 12.5322C108.289 11.3277 108.147 10.3909 107.862 9.72173C107.595 9.05257 107.193 8.59252 106.658 8.34158C106.122 8.07391 105.453 7.94008 104.65 7.94008H103.797V17.1243ZM116.236 24.3764C115.265 24.3764 114.446 24.1004 113.777 23.5483C113.124 22.9963 112.798 22.2016 112.798 21.1644C112.798 20.3782 113.199 19.6588 114.002 19.0064C114.805 18.3372 116.068 17.8353 117.792 17.5008C118.059 17.4506 118.36 17.4004 118.695 17.3502C119.03 17.2833 119.381 17.2164 119.749 17.1494V15.167C119.749 14.0295 119.607 13.2348 119.322 12.7832C119.055 12.3147 118.628 12.0805 118.042 12.0805C117.641 12.0805 117.323 12.2144 117.089 12.482C116.855 12.733 116.704 13.1763 116.637 13.812L116.587 14.088C116.554 14.8074 116.378 15.3343 116.06 15.6689C115.742 16.0035 115.349 16.1708 114.881 16.1708C114.446 16.1708 114.086 16.037 113.802 15.7693C113.517 15.5016 113.375 15.142 113.375 14.6903C113.375 14.0044 113.609 13.4272 114.078 12.9588C114.563 12.4904 115.199 12.1391 115.985 11.9049C116.771 11.6707 117.624 11.5536 118.544 11.5536C120.033 11.5536 121.179 11.9216 121.982 12.6577C122.802 13.377 123.212 14.5564 123.212 16.1959V21.7416C123.212 22.4944 123.563 22.8708 124.266 22.8708H124.818L125.044 23.0715C124.726 23.473 124.374 23.7825 123.99 24C123.622 24.2175 123.095 24.3262 122.409 24.3262C121.673 24.3262 121.087 24.1589 120.652 23.8243C120.234 23.473 119.958 23.013 119.824 22.4442C119.322 22.9795 118.804 23.4396 118.268 23.8243C117.75 24.1924 117.072 24.3764 116.236 24.3764ZM117.766 22.8457C118.101 22.8457 118.411 22.7704 118.695 22.6199C118.996 22.4526 119.347 22.2016 119.749 21.867V17.6513C119.582 17.6848 119.414 17.7182 119.247 17.7517C119.08 17.7851 118.887 17.8186 118.67 17.8521C117.9 18.0528 117.281 18.3958 116.813 18.8809C116.361 19.3493 116.135 19.985 116.135 20.788C116.135 21.4739 116.294 21.9925 116.612 22.3438C116.93 22.6784 117.315 22.8457 117.766 22.8457ZM130.328 24.3764C129.257 24.3764 128.421 24.1087 127.818 23.5734C127.233 23.0381 126.94 22.1849 126.94 21.0139V12.4318H125.209V12.1809L125.811 12.0805C126.33 11.9634 126.773 11.7961 127.141 11.5787C127.526 11.3612 127.902 11.0684 128.27 10.7004L130.328 8.41686H130.579L130.503 11.93H133.314V12.4318H130.478V21.4655C130.478 22.0511 130.604 22.4944 130.855 22.7955C131.122 23.0966 131.457 23.2472 131.858 23.2472C132.21 23.2472 132.519 23.1635 132.787 22.9963C133.055 22.8122 133.322 22.5697 133.59 22.2685L133.841 22.5195C133.506 23.0883 133.046 23.54 132.461 23.8745C131.875 24.2091 131.164 24.3764 130.328 24.3764ZM134.702 24V23.7491L135.003 23.6487C135.606 23.4479 135.907 23.0297 135.907 22.394V8.99401C135.907 8.6427 135.848 8.3834 135.731 8.21611C135.614 8.04882 135.388 7.92335 135.054 7.83971L134.677 7.73933V7.4884L139.094 6.40937L139.495 6.63521L139.395 10.1734V13.3101C139.98 12.825 140.608 12.4151 141.277 12.0805C141.963 11.7292 142.716 11.5536 143.535 11.5536C144.623 11.5536 145.484 11.8631 146.12 12.482C146.772 13.101 147.099 14.0546 147.099 15.3427V22.4191C147.099 22.7537 147.165 23.0213 147.299 23.2221C147.433 23.4228 147.667 23.5734 148.002 23.6738L148.203 23.7491V24H142.331V23.7491L142.632 23.6738C143.234 23.473 143.535 23.0464 143.535 22.394V14.5146C143.535 13.8454 143.418 13.3854 143.184 13.1345C142.966 12.8835 142.573 12.7581 142.005 12.7581C141.637 12.7581 141.235 12.8333 140.8 12.9839C140.365 13.1177 139.922 13.3603 139.47 13.7116V22.4442C139.47 23.0966 139.771 23.5149 140.373 23.6989L140.574 23.7491V24H134.702ZM153.568 24.0753L149.703 13.4607C149.519 12.9253 149.151 12.5489 148.599 12.3315L148.173 12.1809V11.93H154.321V12.1809L153.944 12.2813C153.292 12.482 153.074 12.8835 153.292 13.4858L155.625 20.5873L157.708 15.0667L157.231 13.6363C157.114 13.2683 156.989 12.9923 156.855 12.8082C156.738 12.6075 156.579 12.4653 156.378 12.3817L155.952 12.1809V11.93H161.146V12.1809L160.795 12.3315C160.544 12.4318 160.393 12.5657 160.343 12.733C160.293 12.9003 160.326 13.1512 160.443 13.4858L162.752 20.4618L165.136 13.536C165.37 12.9003 165.245 12.4988 164.76 12.3315L164.208 12.1809V11.93H167.219V12.1809L166.616 12.3566C166.332 12.4402 166.123 12.574 165.989 12.7581C165.872 12.9253 165.763 13.1596 165.663 13.4607L162.049 24.0753H160.77L157.984 15.8697L155.023 24.0753H153.568ZM171.104 24.3764C170.133 24.3764 169.314 24.1004 168.644 23.5483C167.992 22.9963 167.666 22.2016 167.666 21.1644C167.666 20.3782 168.067 19.6588 168.87 19.0064C169.673 18.3372 170.936 17.8353 172.659 17.5008C172.927 17.4506 173.228 17.4004 173.563 17.3502C173.897 17.2833 174.249 17.2164 174.617 17.1494V15.167C174.617 14.0295 174.474 13.2348 174.19 12.7832C173.922 12.3147 173.496 12.0805 172.91 12.0805C172.509 12.0805 172.191 12.2144 171.957 12.482C171.723 12.733 171.572 13.1763 171.505 13.812L171.455 14.088C171.421 14.8074 171.246 15.3343 170.928 15.6689C170.61 16.0035 170.217 16.1708 169.748 16.1708C169.314 16.1708 168.954 16.037 168.669 15.7693C168.385 15.5016 168.243 15.142 168.243 14.6903C168.243 14.0044 168.477 13.4272 168.945 12.9588C169.431 12.4904 170.066 12.1391 170.853 11.9049C171.639 11.6707 172.492 11.5536 173.412 11.5536C174.901 11.5536 176.047 11.9216 176.85 12.6577C177.67 13.377 178.08 14.5564 178.08 16.1959V21.7416C178.08 22.4944 178.431 22.8708 179.134 22.8708H179.686L179.911 23.0715C179.594 23.473 179.242 23.7825 178.857 24C178.489 24.2175 177.962 24.3262 177.277 24.3262C176.54 24.3262 175.955 24.1589 175.52 23.8243C175.102 23.473 174.826 23.013 174.692 22.4442C174.19 22.9795 173.671 23.4396 173.136 23.8243C172.618 24.1924 171.94 24.3764 171.104 24.3764ZM172.634 22.8457C172.969 22.8457 173.278 22.7704 173.563 22.6199C173.864 22.4526 174.215 22.2016 174.617 21.867V17.6513C174.449 17.6848 174.282 17.7182 174.115 17.7517C173.947 17.7851 173.755 17.8186 173.538 17.8521C172.768 18.0528 172.149 18.3958 171.681 18.8809C171.229 19.3493 171.003 19.985 171.003 20.788C171.003 21.4739 171.162 21.9925 171.48 22.3438C171.798 22.6784 172.183 22.8457 172.634 22.8457ZM182.344 30.0225C181.675 30.0225 181.14 29.8552 180.738 29.5206C180.354 29.186 180.161 28.7594 180.161 28.2408C180.161 27.7724 180.328 27.396 180.663 27.1116C180.998 26.8272 181.374 26.685 181.792 26.685C182.21 26.685 182.562 26.7687 182.846 26.936C183.131 27.12 183.382 27.3793 183.599 27.7139L183.775 27.9146C184.143 28.4165 184.511 28.4081 184.879 27.8895C185.029 27.6386 185.197 27.304 185.381 26.8858C185.581 26.4843 185.807 25.9406 186.058 25.2547L181.19 13.6112C181.073 13.2934 180.947 13.0425 180.814 12.8584C180.68 12.6577 180.462 12.4904 180.161 12.3566L179.709 12.1809V11.93H185.958V12.1558L185.456 12.3566C185.088 12.4737 184.895 12.666 184.879 12.9337C184.879 13.1846 184.946 13.5025 185.08 13.8873L187.689 20.6625L190.174 13.812C190.307 13.4272 190.358 13.1094 190.324 12.8584C190.291 12.5908 190.082 12.4067 189.697 12.3064L189.17 12.1809V11.93H192.658V12.1809L192.106 12.3566C191.721 12.4737 191.453 12.641 191.303 12.8584C191.152 13.0759 191.01 13.377 190.876 13.7618L186.836 24.7779C186.184 26.5345 185.531 27.8477 184.879 28.7176C184.226 29.5875 183.382 30.0225 182.344 30.0225ZM197.438 24.3764C196.619 24.3764 195.883 24.276 195.23 24.0753C194.578 23.8913 193.975 23.6571 193.423 23.3727L193.448 20.3865H193.699L194.553 21.8921C194.921 22.5613 195.322 23.0632 195.757 23.3978C196.209 23.7156 196.778 23.8745 197.463 23.8745C198.266 23.8745 198.91 23.6989 199.396 23.3476C199.897 22.9795 200.148 22.4944 200.148 21.8921C200.148 21.3401 199.973 20.8884 199.621 20.5371C199.27 20.1858 198.618 19.8679 197.664 19.5835L196.61 19.2573C195.59 18.9562 194.787 18.4878 194.201 17.8521C193.616 17.2164 193.323 16.4385 193.323 15.5184C193.323 14.4142 193.758 13.4774 194.628 12.7079C195.498 11.9383 196.744 11.5536 198.367 11.5536C199.019 11.5536 199.63 11.6288 200.199 11.7794C200.784 11.9132 201.345 12.1224 201.88 12.4067L201.729 15.1169H201.478L200.6 13.5611C200.282 13.009 199.964 12.6242 199.647 12.4067C199.345 12.1725 198.885 12.0554 198.266 12.0554C197.698 12.0554 197.162 12.2144 196.66 12.5322C196.159 12.8501 195.908 13.3018 195.908 13.8873C195.908 14.4561 196.117 14.9077 196.535 15.2423C196.97 15.5769 197.606 15.8864 198.442 16.1708L199.571 16.497C200.776 16.865 201.637 17.3753 202.156 18.0277C202.675 18.6634 202.934 19.433 202.934 20.3363C202.934 21.5576 202.449 22.5362 201.478 23.2723C200.525 24.0084 199.178 24.3764 197.438 24.3764Z" fill="white"/>
</svg>
