<svg width="41" height="41" viewBox="0 0 41 41" fill="none" xmlns="http://www.w3.org/2000/svg">
<path d="M11.9585 39.2917L17.2116 12.7271C17.3825 11.9014 17.7669 11.2821 18.3648 10.8693C18.9627 10.4564 19.5891 10.25 20.2439 10.25C20.8988 10.25 21.5038 10.3924 22.059 10.6771C22.6143 10.9618 23.0627 11.3889 23.4044 11.9583L25.1127 14.6917C25.6252 15.5174 26.2872 16.2648 27.0986 16.9339C27.9101 17.603 28.8426 18.0941 29.896 18.4073V15.375H32.4585V39.2917H29.896V21.9521C28.5294 21.6389 27.2623 21.1406 26.095 20.4573C24.9276 19.774 23.9169 18.934 23.0627 17.9375L22.0377 23.0625L25.6252 26.4792V39.2917H22.2085V29.0417L18.621 25.625L15.546 39.2917H11.9585ZM12.6846 22.4219L9.05435 21.7385C8.5988 21.6531 8.2429 21.4182 7.98665 21.0339C7.7304 20.6495 7.64498 20.2153 7.7304 19.7313L9.01165 13.026C9.18248 12.1149 9.66651 11.396 10.4637 10.8693C11.261 10.3425 12.1151 10.1646 13.0262 10.3354L14.9908 10.7198L12.6846 22.4219ZM23.0627 9.39583C22.1231 9.39583 21.3188 9.06128 20.6497 8.39219C19.9806 7.72309 19.646 6.91875 19.646 5.97917C19.646 5.03958 19.9806 4.23524 20.6497 3.56615C21.3188 2.89705 22.1231 2.5625 23.0627 2.5625C24.0023 2.5625 24.8066 2.89705 25.4757 3.56615C26.1448 4.23524 26.4794 5.03958 26.4794 5.97917C26.4794 6.91875 26.1448 7.72309 25.4757 8.39219C24.8066 9.06128 24.0023 9.39583 23.0627 9.39583Z" fill="#3A2239"/>
</svg>
