<svg width="42" height="41" viewBox="0 0 42 41" fill="none" xmlns="http://www.w3.org/2000/svg">
<path d="M8.97966 13.6666H32.8963V10.25H8.97966V13.6666ZM8.97966 37.5833C8.04007 37.5833 7.23573 37.2487 6.56663 36.5796C5.89754 35.9105 5.56299 35.1062 5.56299 34.1666V10.25C5.56299 9.31038 5.89754 8.50604 6.56663 7.83694C7.23573 7.16784 8.04007 6.83329 8.97966 6.83329H10.688V3.41663H14.1047V6.83329H27.7713V3.41663H31.188V6.83329H32.8963C33.8359 6.83329 34.6403 7.16784 35.3093 7.83694C35.9784 8.50604 36.313 9.31038 36.313 10.25V19.9448C35.772 19.6885 35.2168 19.475 34.6474 19.3041C34.0779 19.1333 33.4942 19.0052 32.8963 18.9198V17.0833H8.97966V34.1666H19.7422C19.9415 34.793 20.1764 35.3909 20.4468 35.9604C20.7173 36.5298 21.0376 37.0708 21.4078 37.5833H8.97966ZM31.188 39.2916C28.8248 39.2916 26.8104 38.4588 25.1448 36.7932C23.4791 35.1276 22.6463 33.1132 22.6463 30.75C22.6463 28.3868 23.4791 26.3724 25.1448 24.7067C26.8104 23.0411 28.8248 22.2083 31.188 22.2083C33.5512 22.2083 35.5656 23.0411 37.2312 24.7067C38.8968 26.3724 39.7297 28.3868 39.7297 30.75C39.7297 33.1132 38.8968 35.1276 37.2312 36.7932C35.5656 38.4588 33.5512 39.2916 31.188 39.2916ZM34.0495 34.8073L35.2453 33.6114L32.0422 30.4083V25.625H30.3338V31.0916L34.0495 34.8073Z" fill="#3A2239"/>
</svg>
