<svg width="42" height="41" viewBox="0 0 42 41" fill="none" xmlns="http://www.w3.org/2000/svg">
<path d="M15.7284 37.5833V14.9906C13.1375 14.3073 11.0661 12.8765 9.51437 10.6984C7.96264 8.52027 7.18677 6.09301 7.18677 3.41663H10.6034C10.6034 5.77982 11.3651 7.79423 12.8883 9.45986C14.4116 11.1255 16.3548 11.9583 18.718 11.9583H22.9889C23.843 11.9583 24.6402 12.1149 25.3805 12.4281C26.1208 12.7413 26.7899 13.1968 27.3878 13.7948L35.118 21.525L32.7264 23.9166L25.9784 17.1687V37.5833H22.5618V27.3333H19.1451V37.5833H15.7284ZM20.8534 10.25C19.9139 10.25 19.1095 9.91541 18.4404 9.24631C17.7713 8.57722 17.4368 7.77288 17.4368 6.83329C17.4368 5.89371 17.7713 5.08937 18.4404 4.42027C19.1095 3.75117 19.9139 3.41663 20.8534 3.41663C21.793 3.41663 22.5974 3.75117 23.2665 4.42027C23.9356 5.08937 24.2701 5.89371 24.2701 6.83329C24.2701 7.77288 23.9356 8.57722 23.2665 9.24631C22.5974 9.91541 21.793 10.25 20.8534 10.25Z" fill="#3A2239"/>
</svg>
